REM DATE 2011
REM DISCID 3F04AD06
REM COMMENT "ExactAudioCopy v1.0b3"
PERFORMER "Stitched Up Heart"
TITLE "Escape The Nightmare"
FILE "Audio File Not Exists.wav" WAVE
  TRACK 01 AUDIO
    TITLE "These Scars Will Let Me Breathe"
    PERFORMER "Stitched Up Heart"
    INDEX 01 00:00:00
  TRACK 02 AUDIO
    TITLE "Dead Walking"
    PERFORMER "Stitched Up Heart"
    INDEX 01 02:46:64
  TRACK 03 AUDIO
    TITLE "We're Alive"
    PERFORMER "Stitched Up Heart"
    INDEX 01 03:46:02
